<?xml version="1.0" standalone="no"?>
<!DOCTYPE svg PUBLIC "-//W3C//DTD SVG 20010904//EN"
 "http://www.w3.org/TR/2001/REC-SVG-20010904/DTD/svg10.dtd">
<svg version="1.0" xmlns="http://www.w3.org/2000/svg"
 width="280.000000pt" height="213.000000pt" viewBox="0 0 280.000000 213.000000"
 preserveAspectRatio="xMidYMid meet">

<g transform="translate(0.000000,213.000000) scale(0.100000,-0.100000)"
fill="#000000" stroke="none">
<path d="M1680 1666 c0 -2 8 -10 18 -17 15 -13 16 -12 3 4 -13 16 -21 21 -21
13z"/>
<path d="M1780 1596 c0 -2 8 -10 18 -17 15 -13 16 -12 3 4 -13 16 -21 21 -21
13z"/>
<path d="M969 1563 c-13 -16 -12 -17 4 -4 9 7 17 15 17 17 0 8 -8 3 -21 -13z"/>
<path d="M1820 1566 c0 -2 8 -10 18 -17 15 -13 16 -12 3 4 -13 16 -21 21 -21
13z"/>
<path d="M1258 1306 l-127 -254 -92 29 c-51 16 -94 27 -96 25 -5 -4 18 -12
223 -75 72 -23 138 -41 147 -41 8 0 28 16 44 37 18 22 35 34 44 31 8 -3 36
-48 63 -99 l48 -94 117 -82 c64 -45 150 -105 191 -134 l74 -53 -40 74 c-23 41
-135 258 -249 483 -114 224 -211 407 -214 407 -3 0 -63 -114 -133 -254z"/>
<path d="M904 1508 l-29 -33 33 29 c30 28 37 36 29 36 -2 0 -16 -15 -33 -32z"/>
<path d="M1885 1510 c10 -11 20 -20 23 -20 3 0 -3 9 -13 20 -10 11 -20 20 -23
20 -3 0 3 -9 13 -20z"/>
<path d="M606 1195 c17 -7 44 -16 60 -20 25 -4 24 -3 -6 8 -19 8 -46 17 -60
20 -19 5 -17 3 6 -8z"/>
<path d="M553 1087 c2 -6 62 -45 134 -86 l131 -74 -15 -35 c-38 -92 52 -274
190 -381 30 -22 58 -41 63 -41 6 0 38 54 73 121 35 66 69 123 76 125 10 4 934
-468 1060 -542 54 -31 118 -57 114 -46 -4 10 -351 336 -434 407 -45 39 -111
67 -660 280 -786 305 -737 287 -732 272z"/>
<path d="M770 356 c0 -2 8 -10 18 -17 15 -13 16 -12 3 4 -13 16 -21 21 -21 13z"/>
<path d="M880 276 c0 -3 9 -10 20 -16 11 -6 20 -8 20 -6 0 3 -9 10 -20 16 -11
6 -20 8 -20 6z"/>
<path d="M1780 210 c-9 -6 -10 -10 -3 -10 6 0 15 5 18 10 8 12 4 12 -15 0z"/>
<path d="M1020 200 c8 -5 20 -10 25 -10 6 0 3 5 -5 10 -8 5 -19 10 -25 10 -5
0 -3 -5 5 -10z"/>
<path d="M1060 185 c0 -6 129 -45 149 -44 9 0 -20 11 -64 24 -93 28 -85 26
-85 20z"/>
<path d="M1718 185 c-2 -3 -38 -14 -79 -24 -41 -11 -64 -20 -53 -20 24 -1 154
37 154 44 0 7 -15 6 -22 0z"/>
<path d="M1243 133 c9 -2 25 -2 35 0 9 3 1 5 -18 5 -19 0 -27 -2 -17 -5z"/>
<path d="M1508 133 c12 -2 30 -2 40 0 9 3 -1 5 -23 4 -22 0 -30 -2 -17 -4z"/>
<path d="M1343 123 c26 -2 68 -2 95 0 26 2 4 3 -48 3 -52 0 -74 -1 -47 -3z"/>
</g>
</svg>
